HIERARCHY
ROOT Hips
{
    OFFSET 0.000000 0.000000 0.000000
    CHANNELS 6 Xposition Yposition Zposition Zrotation Xrotation Yrotation
    JOINT Spine
    {
        OFFSET -0.000000 14.517291 0.000000
        CHANNELS 3 Zrotation Xrotation Yrotation
        JOINT Spine1
        {
            OFFSET -0.000000 37.558300 0.000000
            CHANNELS 3 Zrotation Xrotation Yrotation
            JOINT Neck
            {
                OFFSET -0.000000 37.404057 3.400369
                CHANNELS 3 Zrotation Xrotation Yrotation
                JOINT Head
                {
                    OFFSET -0.000000 24.785618 -3.540803
                    CHANNELS 3 Zrotation Xrotation Yrotation
                    End Site
                    {
                        OFFSET -0.000000 35.408028 0.000000
                    }
                }
            }
            JOINT LeftShoulder
            {
                OFFSET 6.992933 33.973492 -0.192664
                CHANNELS 3 Zrotation Xrotation Yrotation
                JOINT LeftArm
                {
                    OFFSET 21.527611 0.000000 0.000000
                    CHANNELS 3 Zrotation Xrotation Yrotation
                    JOINT LeftForeArm
                    {
                        OFFSET 56.353916 0.000000 0.000000
                        CHANNELS 3 Zrotation Xrotation Yrotation
                        JOINT LeftHand
                        {
                            OFFSET 47.774071 0.000000 0.000000
                            CHANNELS 3 Zrotation Xrotation Yrotation
                            End Site
                            {
                                OFFSET 26.556021 0.000000 0.000000
                            }
                        }
                    }
                }
            }
            JOINT RightShoulder
            {
                OFFSET -7.065357 33.973492 -0.192664
                CHANNELS 3 Zrotation Xrotation Yrotation
                JOINT RightArm
                {
                    OFFSET -21.527611 0.000000 0.000000
                    CHANNELS 3 Zrotation Xrotation Yrotation
                    JOINT RightForeArm
                    {
                        OFFSET -56.353916 0.000000 0.000000
                        CHANNELS 3 Zrotation Xrotation Yrotation
                        JOINT RightHand
                        {
                            OFFSET -47.774071 0.000000 0.000000
                            CHANNELS 3 Zrotation Xrotation Yrotation
                            End Site
                            {
                                OFFSET -26.556021 0.000000 0.000000
                            }
                        }
                    }
                }
            }
        }
    }
    JOINT LeftUpLeg
    {
        OFFSET 17.704014 0.000000 0.000000
        CHANNELS 3 Zrotation Xrotation Yrotation
        JOINT LeftLeg
        {
            OFFSET -0.000000 -81.181816 0.000000
            CHANNELS 3 Zrotation Xrotation Yrotation
            JOINT LeftFoot
            {
                OFFSET -0.000000 -62.821102 0.000000
                CHANNELS 3 Zrotation Xrotation Yrotation
                JOINT LeftToeBase
                {
                    OFFSET -0.000000 -11.507608 26.556021
                    CHANNELS 3 Zrotation Xrotation Yrotation
                    End Site
                    {
                        OFFSET -0.000000 0.000000 7.081605
                    }
                }
            }
        }
    }
    JOINT RightUpLeg
    {
        OFFSET -17.704014 0.000000 0.000000
        CHANNELS 3 Zrotation Xrotation Yrotation
        JOINT RightLeg
        {
            OFFSET -0.000000 -81.181816 0.000000
            CHANNELS 3 Zrotation Xrotation Yrotation
            JOINT RightFoot
            {
                OFFSET -0.000000 -62.821102 0.000000
                CHANNELS 3 Zrotation Xrotation Yrotation
                JOINT RightToeBase
                {
                    OFFSET -0.000000 -11.507608 26.556021
                    CHANNELS 3 Zrotation Xrotation Yrotation
                    End Site
                    {
                        OFFSET -0.000000 0.000000 7.081605
                    }
                }
            }
        }
    }
}
MOTION
Frames:    11
Frame Time:    0.008333
-8.260799    162.631226    -68.530594    -5.719799    4.853792    39.263786    1.973316    -2.802468    -2.916465    -6.595287    0.258628    -0.974911    6.143345    -0.502131    -16.280733    10.920822    -2.393957    -16.158522    6.620911    8.520638    -18.026335    -34.521542    21.858530    -47.346886    -7.850476    -6.658248    -117.965836    2.698169    -19.573618    -6.652104    -16.421349    -5.892182    -7.517376    19.452944    -23.381685    52.317833    -13.612836    -14.635430    48.396294    -0.604640    -8.778755    31.205246    19.056871    -3.410587    -5.060507    -14.088979    44.521690    -20.029907    -3.862516    -20.124020    34.502426    0.000000    0.000000    0.000000    3.537957    -23.786577    2.335831    10.866796    21.489630    -12.181556    -8.681568    -0.628948    -13.393903    0.000000    0.000000    0.000000    
-8.029060    162.651184    -68.546196    -5.709503    4.881037    39.257286    1.939867    -2.825523    -2.944562    -6.593491    0.289641    -0.982394    6.167747    -0.495790    -16.272972    10.926991    -2.380310    -16.154116    6.631412    8.560843    -18.056046    -34.541618    21.799501    -47.412849    -7.892617    -6.641287    -117.838280    2.647169    -19.590858    -6.675673    -16.387077    -5.902851    -7.526816    19.409786    -23.368443    52.333824    -13.662678    -14.719398    48.393547    -0.569392    -8.832511    31.185894    19.353949    -3.297620    -5.372975    -13.476696    43.733070    -20.335213    -3.561090    -19.694315    34.489052    0.000000    0.000000    0.000000    3.414327    -23.786312    2.266286    10.927736    21.549299    -12.183293    -8.668495    -0.675231    -13.413585    0.000000    0.000000    0.000000    
-7.817828    162.663483    -68.568451    -5.716884    4.905557    39.252876    1.896836    -2.837557    -2.992667    -6.532491    0.290308    -0.998218    6.150306    -0.483657    -16.269186    10.932584    -2.349854    -16.148775    6.580637    8.547450    -18.079712    -34.585464    21.771528    -47.392574    -7.955127    -6.575987    -117.749809    2.648944    -19.607132    -6.700494    -16.423674    -5.901449    -7.515650    19.462357    -23.396891    52.362282    -13.676157    -14.735620    48.428795    -0.502450    -8.820019    31.278650    19.653984    -3.217826    -5.691533    -12.894281    42.942009    -20.675501    -3.511697    -19.355701    34.689896    0.000000    0.000000    0.000000    3.320778    -23.811295    2.209350    10.957737    21.650093    -12.106727    -8.623699    -0.740322    -13.490418    0.000000    0.000000    0.000000    
-7.600648    162.677292    -68.590614    -5.712594    4.905529    39.248684    1.896968    -2.823673    -3.072536    -6.536024    0.280973    -1.025314    6.167068    -0.459568    -16.245813    10.916636    -2.323134    -16.130577    6.539221    8.584706    -18.062590    -34.603230    21.688240    -47.384087    -8.038982    -6.442369    -117.695030    2.730279    -19.604313    -6.693491    -16.422981    -5.901140    -7.497783    19.497152    -23.360445    52.418991    -13.731658    -14.792827    48.468838    -0.492048    -8.844753    31.273506    19.961805    -3.082765    -5.938876    -12.311831    42.068340    -21.002613    -3.540651    -18.959536    34.810875    0.000000    0.000000    0.000000    3.231844    -23.800512    2.134479    10.973147    21.741552    -12.012451    -8.550218    -0.806862    -13.560585    0.000000    0.000000    0.000000    
-7.390714    162.684631    -68.626747    -5.711768    4.912644    39.256599    1.871085    -2.832319    -3.121117    -6.533219    0.308607    -1.039751    6.207379    -0.457428    -16.247936    10.924047    -2.300407    -16.139868    6.573293    8.591342    -18.106318    -34.645126    21.695475    -47.420898    -8.104920    -6.448812    -117.659950    2.853663    -19.710211    -6.580238    -16.386160    -5.887766    -7.514547    19.554314    -23.427004    52.469143    -13.690317    -14.766015    48.539860    -0.508813    -8.830349    31.256954    20.261209    -2.977426    -6.247669    -11.843202    41.191677    -21.196609    -3.686860    -18.571417    34.879616    0.000000    0.000000    0.000000    3.130662    -23.796032    2.106483    11.022718    21.804739    -12.012784    -8.508494    -0.880912    -13.608335    0.000000    0.000000    0.000000    
-7.173586    162.690384    -68.672852    -5.710727    4.912337    39.260899    1.851953    -2.817920    -3.177800    -6.524308    0.306403    -1.058545    6.272511    -0.460800    -16.244987    10.881763    -2.279177    -16.155647    6.585887    8.633383    -18.122976    -34.606812    21.790707    -47.499840    -8.113150    -6.618154    -117.646141    2.873813    -19.879139    -6.495308    -16.348749    -5.919915    -7.496054    19.585112    -23.436115    52.473446    -13.674937    -14.743312    48.617355    -0.505972    -8.802020    31.212423    20.567036    -2.833978    -6.535067    -11.439828    40.240044    -21.480246    -3.752942    -18.248909    35.014755    0.000000    0.000000    0.000000    3.034611    -23.786226    2.077621    11.066065    21.867039    -12.068740    -8.469532    -0.965571    -13.600576    0.000000    0.000000    0.000000    
-6.967478    162.690964    -68.717987    -5.707501    4.892575    39.249584    1.811283    -2.789213    -3.234989    -6.447847    0.312063    -1.076974    6.249973    -0.465513    -16.243414    10.890660    -2.245771    -16.152533    6.548637    8.655463    -18.130623    -34.626137    21.776493    -47.512512    -8.153763    -6.594134    -117.637794    2.858208    -19.917105    -6.473909    -16.364956    -5.910958    -7.486212    19.651697    -23.468340    52.501549    -13.657139    -14.718432    48.721935    -0.517705    -8.772658    31.160080    20.871592    -2.689942    -6.750373    -11.010322    39.348862    -21.898928    -3.701209    -17.927544    35.150066    0.000000    0.000000    0.000000    2.964503    -23.760273    2.081763    11.093437    21.926672    -12.144082    -8.407404    -1.047483    -13.574100    0.000000    0.000000    0.000000    
-6.767122    162.687210    -68.769821    -5.712262    4.876011    39.229198    1.799162    -2.750512    -3.305838    -6.429534    0.286460    -1.101775    6.247834    -0.478813    -16.221392    10.914446    -2.184280    -16.131927    6.543773    8.696714    -18.094845    -34.613518    21.810556    -47.552418    -8.142560    -6.650502    -117.653084    2.819222    -19.954021    -6.458451    -16.353424    -5.889517    -7.472529    19.727129    -23.455997    52.539497    -13.682089    -14.716999    48.819489    -0.585275    -8.764953    31.259829    21.183672    -2.521517    -6.988605    -10.638890    38.368038    -22.277889    -3.706485    -17.693424    35.158676    0.000000    0.000000    0.000000    2.900673    -23.754278    2.085718    11.117802    22.007086    -12.214754    -8.327594    -1.135475    -13.529477    0.000000    0.000000    0.000000    
-6.567396    162.686844    -68.842995    -5.725299    4.869890    39.229832    1.792170    -2.731846    -3.363769    -6.439067    0.279634    -1.121251    6.344904    -0.475332    -16.228596    10.863049    -2.185760    -16.162170    6.596123    8.730950    -18.106358    -34.649456    21.819916    -47.593842    -8.128889    -6.682612    -117.673218    2.820220    -19.966391    -6.394321    -16.299580    -5.878287    -7.476153    19.792383    -23.485638    52.560188    -13.664236    -14.666630    48.921761    -0.601126    -8.711532    31.269070    21.485674    -2.396679    -7.203622    -10.322373    37.393879    -22.676052    -3.694832    -17.422232    35.163300    0.000000    0.000000    0.000000    2.819361    -23.765131    2.070664    11.157013    22.077827    -12.284322    -8.257847    -1.211198    -13.510312    0.000000    0.000000    0.000000    
-6.369670    162.682968    -68.927940    -5.738858    4.863255    39.225800    1.759884    -2.702851    -3.430083    -6.373394    0.252284    -1.144617    6.287280    -0.438382    -16.242416    10.970988    -2.190314    -16.148355    6.563208    8.734413    -18.089590    -34.650097    21.874098    -47.603928    -8.095931    -6.721065    -117.702431    2.838298    -19.958773    -6.384846    -16.281384    -5.841778    -7.474802    19.859678    -23.547676    52.615284    -13.615856    -14.587017    49.026333    -0.595861    -8.635632    31.216503    21.762531    -2.279402    -7.384771    -9.997170    36.416077    -23.106749    -3.745626    -17.131123    35.187519    0.000000    0.000000    0.000000    2.733195    -23.778410    2.071514    11.212256    22.144308    -12.336021    -8.176717    -1.284987    -13.525824    0.000000    0.000000    0.000000    
-6.176461    162.674576    -69.021584    -5.758326    4.846904    39.210953    1.771167    -2.672443    -3.501721    -6.380142    0.232037    -1.169571    6.269576    -0.411737    -16.225798    11.068238    -2.199156    -16.110687    6.552445    8.731259    -18.046009    -34.612686    21.949165    -47.612808    -8.064859    -6.781036    -117.762100    2.843470    -19.982161    -6.409918    -16.265551    -5.823587    -7.455595    19.940002    -23.539581    52.630085    -13.611881    -14.565525    49.154526    -0.592075    -8.595413    31.099127    22.047533    -2.141658    -7.575193    -9.728182    35.379684    -23.460732    -3.961223    -16.865091    35.169525    0.000000    0.000000    0.000000    2.661130    -23.792688    2.100686    11.277688    22.205446    -12.372070    -8.100750    -1.354347    -13.571630    0.000000    0.000000    0.000000    
